HIERARCHY
ROOT Hips
{
    OFFSET   0.000000   0.000000   0.000000
    CHANNELS 6 Xposition Yposition Zposition Zrotation Xrotation Yrotation
    JOINT Chest
    {
        OFFSET   0.000000   8.007240   0.000000
        CHANNELS 3 Zrotation Xrotation Yrotation
        JOINT Chest2
        {
            OFFSET   0.000000  22.077100   0.000000
            CHANNELS 3 Zrotation Xrotation Yrotation
            JOINT Neck
            {
                OFFSET   0.000000  23.254800   0.000000
                CHANNELS 3 Zrotation Xrotation Yrotation
                JOINT Head
                {
                    OFFSET   0.000000  14.370000   1.956600
                    CHANNELS 3 Zrotation Xrotation Yrotation
                    End Site
                    {
                        OFFSET   0.000000  19.566000   0.000000
                    }
                }
            }
            JOINT LeftCollar
            {
                OFFSET   3.911900  19.017000  -0.467064
                CHANNELS 3 Zrotation Xrotation Yrotation
                JOINT LeftShoulder
                {
                    OFFSET  10.383700   0.000000   0.000000
                    CHANNELS 3 Zrotation Xrotation Yrotation
                    JOINT LeftElbow
                    {
                        OFFSET  26.662100   0.001476   0.000517
                        CHANNELS 3 Zrotation Xrotation Yrotation
                        JOINT LeftWrist
                        {
                            OFFSET  28.869000  -0.000025  -0.000106
                            CHANNELS 3 Zrotation Xrotation Yrotation
                            JOINT LeftFinger0
                            {
                                OFFSET   2.044660  -2.323460   3.252850
                                CHANNELS 3 Zrotation Xrotation Yrotation
                                JOINT LeftFinger01
                                {
                                    OFFSET   3.088130   0.000000   0.000000
                                    CHANNELS 3 Zrotation Xrotation Yrotation
                                    JOINT LeftFinger02
                                    {
                                        OFFSET   2.639460   0.000000   0.000000
                                        CHANNELS 3 Zrotation Xrotation Yrotation
                                        End Site
                                        {
                                            OFFSET   2.582190   0.000000   0.000000
                                        }
                                    }
                                }
                            }
                            JOINT LeftFinger1
                            {
                                OFFSET   8.364480   0.000000   3.252850
                                CHANNELS 3 Zrotation Xrotation Yrotation
                                JOINT LeftFinger11
                                {
                                    OFFSET   4.646930   0.000000   0.000000
                                    CHANNELS 3 Zrotation Xrotation Yrotation
                                    JOINT LeftFinger12
                                    {
                                        OFFSET   2.323460   0.000000   0.000000
                                        CHANNELS 3 Zrotation Xrotation Yrotation
                                        End Site
                                        {
                                            OFFSET   2.273050   0.000000   0.000000
                                        }
                                    }
                                }
                            }
                            JOINT LeftFinger2
                            {
                                OFFSET   8.364490   0.000015   1.078090
                                CHANNELS 3 Zrotation Xrotation Yrotation
                                JOINT LeftFinger21
                                {
                                    OFFSET   5.111620   0.000000   0.000000
                                    CHANNELS 3 Zrotation Xrotation Yrotation
                                    JOINT LeftFinger22
                                    {
                                        OFFSET   2.788160   0.000016   0.000000
                                        CHANNELS 3 Zrotation Xrotation Yrotation
                                        End Site
                                        {
                                            OFFSET   2.727660   0.000000   0.000000
                                        }
                                    }
                                }
                            }
                            JOINT LeftFinger3
                            {
                                OFFSET   7.899780   0.000017  -1.078090
                                CHANNELS 3 Zrotation Xrotation Yrotation
                                JOINT LeftFinger31
                                {
                                    OFFSET   4.646930   0.000000   0.000000
                                    CHANNELS 3 Zrotation Xrotation Yrotation
                                    JOINT LeftFinger32
                                    {
                                        OFFSET   2.323470   0.000000   0.000000
                                        CHANNELS 3 Zrotation Xrotation Yrotation
                                        End Site
                                        {
                                            OFFSET   2.273050   0.000000   0.000000
                                        }
                                    }
                                }
                            }
                            JOINT LeftFinger4
                            {
                                OFFSET   7.435090   0.000000  -3.252850
                                CHANNELS 3 Zrotation Xrotation Yrotation
                                JOINT LeftFinger41
                                {
                                    OFFSET   3.717550   0.000000   0.000000
                                    CHANNELS 3 Zrotation Xrotation Yrotation
                                    JOINT LeftFinger42
                                    {
                                        OFFSET   1.858770   0.000000   0.000000
                                        CHANNELS 3 Zrotation Xrotation Yrotation
                                        End Site
                                        {
                                            OFFSET   1.818440   0.000000   0.000000
                                        }
                                    }
                                }
                            }
                        }
                    }
                }
            }
            JOINT RightCollar
            {
                OFFSET  -3.911900  19.017000  -0.467063
                CHANNELS 3 Zrotation Xrotation Yrotation
                JOINT RightShoulder
                {
                    OFFSET -10.383700   0.000019   0.000000
                    CHANNELS 3 Zrotation Xrotation Yrotation
                    JOINT RightElbow
                    {
                        OFFSET -26.662100   0.001175   0.000102
                        CHANNELS 3 Zrotation Xrotation Yrotation
                        JOINT RightWrist
                        {
                            OFFSET -28.869000   0.000016  -0.000079
                            CHANNELS 3 Zrotation Xrotation Yrotation
                            JOINT RightFinger0
                            {
                                OFFSET  -2.044660  -2.323490   3.252850
                                CHANNELS 3 Zrotation Xrotation Yrotation
                                JOINT RightFinger01
                                {
                                    OFFSET  -3.088140   0.000000   0.000000
                                    CHANNELS 3 Zrotation Xrotation Yrotation
                                    JOINT RightFinger02
                                    {
                                        OFFSET  -2.639460   0.000000   0.000000
                                        CHANNELS 3 Zrotation Xrotation Yrotation
                                        End Site
                                        {
                                            OFFSET  -2.582190   0.000000   0.000000
                                        }
                                    }
                                }
                            }
                            JOINT RightFinger1
                            {
                                OFFSET  -8.364480   0.000000   3.252850
                                CHANNELS 3 Zrotation Xrotation Yrotation
                                JOINT RightFinger11
                                {
                                    OFFSET  -4.646930   0.000000   0.000000
                                    CHANNELS 3 Zrotation Xrotation Yrotation
                                    JOINT RightFinger12
                                    {
                                        OFFSET  -2.323470   0.000000   0.000000
                                        CHANNELS 3 Zrotation Xrotation Yrotation
                                        End Site
                                        {
                                            OFFSET  -2.273050   0.000000   0.000000
                                        }
                                    }
                                }
                            }
                            JOINT RightFinger2
                            {
                                OFFSET  -8.364480   0.000000   1.078090
                                CHANNELS 3 Zrotation Xrotation Yrotation
                                JOINT RightFinger21
                                {
                                    OFFSET  -5.111620   0.000000   0.000000
                                    CHANNELS 3 Zrotation Xrotation Yrotation
                                    JOINT RightFinger22
                                    {
                                        OFFSET  -2.788160   0.000000   0.000000
                                        CHANNELS 3 Zrotation Xrotation Yrotation
                                        End Site
                                        {
                                            OFFSET  -2.727660   0.000000   0.000000
                                        }
                                    }
                                }
                            }
                            JOINT RightFinger3
                            {
                                OFFSET  -7.899780   0.000000  -1.078090
                                CHANNELS 3 Zrotation Xrotation Yrotation
                                JOINT RightFinger31
                                {
                                    OFFSET  -4.646930   0.000000   0.000000
                                    CHANNELS 3 Zrotation Xrotation Yrotation
                                    JOINT RightFinger32
                                    {
                                        OFFSET  -2.323470   0.000000   0.000000
                                        CHANNELS 3 Zrotation Xrotation Yrotation
                                        End Site
                                        {
                                            OFFSET  -2.273050   0.000000   0.000000
                                        }
                                    }
                                }
                            }
                            JOINT RightFinger4
                            {
                                OFFSET  -7.435090   0.000000  -3.252850
                                CHANNELS 3 Zrotation Xrotation Yrotation
                                JOINT RightFinger41
                                {
                                    OFFSET  -3.717550   0.000000   0.000000
                                    CHANNELS 3 Zrotation Xrotation Yrotation
                                    JOINT RightFinger42
                                    {
                                        OFFSET  -1.858770   0.000000   0.000000
                                        CHANNELS 3 Zrotation Xrotation Yrotation
                                        End Site
                                        {
                                            OFFSET  -1.818440   0.000000   0.000000
                                        }
                                    }
                                }
                            }
                        }
                    }
                }
            }
        }
    }
    JOINT LeftHip
    {
        OFFSET   9.783040   0.000000   0.000000
        CHANNELS 3 Zrotation Xrotation Yrotation
        JOINT LeftKnee
        {
            OFFSET   0.000032 -41.789100  -0.002222
            CHANNELS 3 Zrotation Xrotation Yrotation
            JOINT LeftAnkle
            {
                OFFSET   0.000087 -41.133200  -0.000135
                CHANNELS 3 Zrotation Xrotation Yrotation
                JOINT LeftToe
                {
                    OFFSET   0.000000  -6.358960  14.674500
                    CHANNELS 3 Zrotation Xrotation Yrotation
                    End Site
                    {
                        OFFSET   0.000000   0.000000   3.913200
                    }
                }
            }
        }
    }
    JOINT RightHip
    {
        OFFSET  -9.783040   0.000000   0.000000
        CHANNELS 3 Zrotation Xrotation Yrotation
        JOINT RightKnee
        {
            OFFSET   0.000047 -41.789100  -0.000896
            CHANNELS 3 Zrotation Xrotation Yrotation
            JOINT RightAnkle
            {
                OFFSET  -0.000117 -41.133300  -0.000248
                CHANNELS 3 Zrotation Xrotation Yrotation
                JOINT RightToe
                {
                    OFFSET   0.000000  -6.358970  14.674500
                    CHANNELS 3 Zrotation Xrotation Yrotation
                    End Site
                    {
                        OFFSET   0.000000   0.000000   3.913200
                    }
                }
            }
        }
    }
}
MOTION
Frames: 4
Frame Time:   0.016667
  0.170505  89.514800  -0.057103  -0.620190  -1.767470   3.510650   0.438112   1.852190  -0.619027   0.896935   3.699480  -1.253180  -0.946066   0.264073   0.007163  -1.554690   0.535510   3.283460  -3.407630   0.929313   7.143460 -78.762500   6.097550   3.434540   1.301550   5.228560 -13.165200   7.587760 -12.834200  -5.315480  37.527400  21.325500 -57.185300 -24.552400  -0.003080   0.002114  -7.276180  -0.001706   0.009443 -26.562300  -0.241332   0.498334 -21.733600  -0.002880  -0.001027 -15.221900  -0.008253  -0.002787 -28.156800  -4.086710   7.592200 -35.403100   0.001283   0.006630 -23.578500   0.000888  -0.009712 -26.854800  -3.913910   7.683110 -27.490000  -0.001988   0.008610 -18.316600  -0.008056  -0.001205 -29.501000  -4.271910   7.492390 -44.671500  -0.000916  -0.000501 -29.751200  -0.002554  -0.007797   8.464060   3.368540   4.825310  72.578800  -4.709320  -3.812080   4.625990  -8.322740  12.004100 -23.020200  -1.261490  -1.210020 -55.991900  51.383200 101.991000   1.021090   0.001351  -0.000859  -4.489460  -0.004419  -0.000173  28.082500  -0.750664  -1.406930  22.966900  -0.012906   0.003932  16.091100  -0.001027   0.012564  27.910500  -1.416780  -2.672440  31.640700   0.000377  -0.000078  21.072700  -0.011777  -0.000143  27.801000  -2.742370  -5.183650  31.486300  -0.006768   0.006014  20.980400   0.005920   0.005406  34.052600  -3.291090  -4.854100  51.288200  -0.005369   0.008343  34.157900   0.000110   0.005960   3.634070   2.540790  -3.139160   0.661863   1.876740  12.284800  -4.383710  -2.873610  -1.530080  -0.000000   0.000000  -0.000000  -0.280473   3.206510  -2.237470  -0.026837   1.553350  -9.873010  -0.269370  -3.221770  -2.324060  -0.000000   0.000000  -0.000000
  0.181371  89.514700  -0.061807  -0.620369  -1.773070   3.490440   0.438178   1.857330  -0.616068   0.897033   3.709790  -1.247300  -0.952567   0.277034   0.007173  -1.562640   0.561761   3.289710  -3.421340   0.945359   7.038280 -78.758600   5.976560   3.443220   1.297840   5.215230 -13.158800   7.581500 -12.824800  -5.319620  37.528100  21.316000 -57.200900 -24.547900  -0.003076   0.002106  -7.273970  -0.001704   0.009448 -26.563400  -0.241331   0.493235 -21.734500  -0.002876  -0.001027 -15.220000  -0.008247  -0.002786 -28.156600  -4.086780   7.592360 -35.400400   0.001287   0.006639 -23.576700   0.000893  -0.009716 -26.854500  -3.913950   7.683280 -27.493000  -0.001982   0.008611 -18.315600  -0.008049  -0.001203 -29.507800  -4.271910   7.492600 -44.681900  -0.000908  -0.000500 -29.758200  -0.002545  -0.007793   8.468560   3.384180   4.807780  72.554400  -4.687290  -3.797440   4.630200  -8.321930  12.031500 -23.030000  -1.237960  -1.211460 -55.997300  51.381500 101.989000   1.091120   0.001354  -0.000845  -4.454450  -0.004423  -0.000162  28.076700  -0.763903  -1.431930  22.966300  -0.012906   0.003915  16.091400  -0.001026   0.012558  27.909800  -1.424320  -2.686600  31.645400   0.000386  -0.000088  21.075800  -0.011784  -0.000152  27.800900  -2.742370  -5.183920  31.491700  -0.006767   0.006014  20.980400   0.005925   0.005408  34.065700  -3.291560  -4.854100  51.308000  -0.005373   0.008346  34.171100   0.000110   0.005963   3.627900   2.548280  -3.107940   0.654689   1.871380  12.273300  -4.372760  -2.873270  -1.521320  -0.000000   0.000000  -0.000000  -0.283325   3.248950  -2.245550  -0.032680   1.507690  -9.879380  -0.275849  -3.214250  -2.289210   0.000000   0.000000   0.000000
  0.200067  89.514700  -0.068651  -0.620722  -1.783070   3.454890   0.438188   1.862470  -0.606925   0.896811   3.720120  -1.229050  -0.961814   0.306788   0.007183  -1.573410   0.621912   3.295980  -3.436320   0.981660   6.867790 -78.763100   5.754070   3.451290   1.293240   5.202130 -13.142100   7.570170 -12.809600  -5.330330  37.518600  21.300300 -57.212800 -24.533400  -0.003068   0.002095  -7.266720  -0.001694   0.009452 -26.564500  -0.241326   0.482660 -21.735400  -0.002861  -0.001027 -15.214800  -0.008229  -0.002783 -28.156400  -4.086920   7.592570 -35.394400   0.001300   0.006662 -23.572700   0.000904  -0.009723 -26.854100  -3.914010   7.683510 -27.496000  -0.001966   0.008615 -18.312400  -0.008032  -0.001195 -29.516800  -4.271910   7.492900 -44.695300  -0.000888  -0.000500 -29.767100  -0.002518  -0.007783   8.483040   3.410540   4.774960  72.514700  -4.665310  -3.774700   4.634450  -8.321250  12.059000 -23.053900  -1.191530  -1.221560 -56.000000  51.371500 101.974000   1.187320   0.001358  -0.000813  -4.406340  -0.004429  -0.000152  28.070500  -0.785350  -1.472350  22.965700  -0.012905   0.003875  16.091900  -0.001024   0.012540  27.908900  -1.435500  -2.707550  31.654600   0.000408  -0.000112  21.082000  -0.011802  -0.000173  27.800700  -2.742360  -5.185820  31.502200  -0.006766   0.006014  20.980400   0.005937   0.005410  34.089600  -3.294870  -4.854120  51.344000  -0.005383   0.008351  34.195000   0.000110   0.005974   3.616080   2.562690  -3.074300   0.648286   1.862450  12.261700  -4.354640  -2.872570  -1.506170   0.000000   0.000000   0.000000  -0.287470   3.320530  -2.258490  -0.043791   1.431880  -9.885620  -0.281268  -3.201250  -2.239090  -0.000000   0.000000   0.000000
  0.216665  89.514600  -0.072507  -0.621209  -1.791080   3.421930   0.438032   1.859260  -0.591135   0.895948   3.713830  -1.197430  -0.965610   0.347537   0.007165  -1.578960   0.703992   3.282620  -3.413350   1.033940   6.739780 -78.802500   5.519720   3.443790   1.298930   5.223770 -13.107300   7.556900 -12.795700  -5.349040  37.523700  21.266800 -57.172000 -24.497400  -0.003058   0.002091  -7.248710  -0.001672   0.009439 -26.547800  -0.236117   0.469810 -21.721700  -0.002833  -0.001031 -15.203600  -0.008199  -0.002778 -28.156200  -4.087110   7.592670 -35.384200   0.001323   0.006695 -23.565900   0.000920  -0.009731 -26.854000  -3.914090   7.683610 -27.486300  -0.001943   0.008622 -18.304800  -0.008004  -0.001182 -29.518200  -4.271920   7.493030 -44.697300  -0.000858  -0.000501 -29.768400  -0.002476  -0.007766   8.509230   3.437680   4.742000  72.484200  -4.666500  -3.761840   4.633130  -8.324660  12.049500 -23.089100  -1.147930  -1.263150 -55.976700  51.347600 101.926000   1.212010   0.001360  -0.000762  -4.393980  -0.004431  -0.000153  28.071700  -0.800029  -1.499760  22.971700  -0.012906   0.003813  16.092000  -0.001018   0.012510  27.908700  -1.438840  -2.713610  31.668300   0.000441  -0.000149  21.091100  -0.011830  -0.000204  27.800000  -2.744920  -5.191060  31.516800  -0.006766   0.006015  20.988500   0.005957   0.005411  34.119500  -3.301010  -4.857100  51.388700  -0.005400   0.008355  34.224800   0.000109   0.005993   3.602130   2.576730  -3.071490   0.649874   1.855770  12.276500  -4.340050  -2.871700  -1.493160   0.000000   0.000000  -0.000000  -0.290886   3.373170  -2.266520  -0.055435   1.376080  -9.869390  -0.275831  -3.188970  -2.217720  -0.000000   0.000000   0.000000
